<svg width="26" height="26" fill="none" xmlns="http://www.w3.org/2000/svg"><g fill="#fff"><path d="M7.16 20.918a9.301 9.301 0 005.97 2.193c5.238 0 9.5-4.428 9.5-9.87 0-5.443-4.262-9.87-9.5-9.87a9.301 9.301 0 00-5.97 2.192 9.97 9.97 0 00-3.296 5.492c-.061.28.108.56.378.623a.501.501 0 00.6-.393c.88-4.047 4.288-6.873 8.288-6.873 4.685 0 8.497 3.96 8.497 8.829 0 4.868-3.812 8.828-8.497 8.828-4 0-7.408-2.826-8.288-6.873a.501.501 0 00-.6-.393.522.522 0 00-.378.623 9.97 9.97 0 003.295 5.492z"/><path d="M24.964 7.907a.508.508 0 00-.934.398c.633 1.487.954 3.066.954 4.695 0 6.608-5.376 11.984-11.984 11.984S1.016 19.608 1.016 13 6.392 1.016 13 1.016c1.629 0 3.209.32 4.695.954a.508.508 0 00.398-.934A12.915 12.915 0 0013 0a12.915 12.915 0 00-9.192 3.808A12.915 12.915 0 000 13c0 3.472 1.352 6.737 3.808 9.192A12.915 12.915 0 0013 26c3.472 0 6.737-1.352 9.192-3.808A12.915 12.915 0 0026 13c0-1.766-.349-3.48-1.036-5.093z"/><path d="M18.783 4.082h2.155V6.27c0 .26.218.47.488.47a.48.48 0 00.487-.47V4.082h2.155a.48.48 0 00.487-.47.48.48 0 00-.487-.472h-2.155V.953a.48.48 0 00-.488-.472.48.48 0 00-.487.472V3.14h-2.155a.48.48 0 00-.487.471c0 .26.218.471.487.471zM4.333 13.24a.724.724 0 00-.722-.721.724.724 0 00-.722.722c0 .398.324.722.722.722a.724.724 0 00.722-.722z"/><path fill-rule="evenodd" clip-rule="evenodd" d="M17.518 14.298c0 1.347-1.228 2.187-2.877 2.187-1.649 0-2.877-.862-2.877-2.177 0-.916.506-1.487 1.357-1.842-.635-.335-1.099-.841-1.099-1.703 0-1.153 1.11-2.037 2.619-2.037 1.509 0 2.619.873 2.619 2.058 0 .84-.464 1.347-1.1 1.681.82.378 1.358.917 1.358 1.833zM10.255 8.78v7.598H8.939v-6.251l-1.358.377-.28-1.078 2.026-.646h.927zm4.388 3.244c-.776 0-1.348-.464-1.348-1.121 0-.593.54-1.067 1.348-1.067s1.347.474 1.347 1.056c0 .668-.572 1.132-1.347 1.132zm-1.585 2.22c0 .614.593 1.131 1.584 1.131.992 0 1.584-.506 1.584-1.153 0-.69-.69-1.142-1.584-1.142-.894 0-1.584.452-1.584 1.164z"/></g></svg>