<svg xmlns="http://www.w3.org/2000/svg" width="22.264" height="18.09"><g data-name="Group 19"><path data-name="Path 10" d="M22.265 2.142a9.516 9.516 0 01-2.63.721A4.539 4.539 0 0021.643.34a9.122 9.122 0 01-2.894 1.1 4.564 4.564 0 00-7.9 3.121 4.7 4.7 0 00.106 1.041A12.92 12.92 0 011.551.832a4.566 4.566 0 001.4 6.1A4.508 4.508 0 01.892 6.37v.05a4.585 4.585 0 003.657 4.485 4.555 4.555 0 01-1.2.15 4.036 4.036 0 01-.864-.078 4.608 4.608 0 004.265 3.18A9.171 9.171 0 011.093 16.1a8.549 8.549 0 01-1.092-.059 12.85 12.85 0 007 2.049A12.9 12.9 0 0019.994 5.1c0-.2-.007-.4-.017-.59a9.106 9.106 0 002.288-2.368z" fill="#ADB6FF"/></g></svg>