<svg xmlns="http://www.w3.org/2000/svg" width="20.09" height="20.09"><g data-name="Group 8"><g data-name="Group 7"><path data-name="Path 6" d="M13.812 0H6.278A6.279 6.279 0 000 6.278v7.534a6.279 6.279 0 006.278 6.278h7.534a6.279 6.279 0 006.278-6.278V6.278A6.279 6.279 0 0013.812 0zm4.395 13.812a4.4 4.4 0 01-4.395 4.395H6.278a4.4 4.4 0 01-4.395-4.395V6.278a4.4 4.4 0 014.395-4.395h7.534a4.4 4.4 0 014.395 4.395z" fill="#ADB6FF"/></g></g><g data-name="Group 10"><g data-name="Group 9"><path data-name="Path 7" d="M10.044 5.022a5.022 5.022 0 105.022 5.022 5.023 5.023 0 00-5.022-5.022zm0 8.161a3.139 3.139 0 113.139-3.139 3.143 3.143 0 01-3.139 3.139z" fill="#ADB6FF"/></g></g><g data-name="Group 12"><g data-name="Group 11"><circle data-name="Ellipse 6" cx=".669" cy=".669" r=".669" fill="#ADB6FF" transform="translate(14.775 3.977)"/></g></g></svg>